<svg width="41" height="41" viewBox="0 0 41 41" fill="none" xmlns="http://www.w3.org/2000/svg">
<path d="M20.1413 0.416992C9.0901 0.416992 0.0975952 9.40699 0.0975952 20.4595C0.0975952 31.512 9.0901 40.502 20.1413 40.502C31.1926 40.502 40.1851 31.512 40.1851 20.4595C40.1851 9.40699 31.1926 0.416992 20.1413 0.416992ZM20.1413 39.167C9.82635 39.167 1.4351 30.7745 1.4351 20.4595C1.4351 10.1445 9.82635 1.75199 20.1413 1.75199C30.4563 1.75199 38.8476 10.1445 38.8476 20.4595C38.8476 30.7745 30.4563 39.167 20.1413 39.167Z" fill="#206974"/>
<path d="M24.5164 9.20903H21.1814C16.9339 9.16653 16.3914 11.7953 16.3914 14.6403V16.709H14.5164C14.4316 16.6977 14.3454 16.7061 14.2644 16.7335C14.1834 16.7609 14.1099 16.8066 14.0494 16.8671C13.9889 16.9275 13.9432 17.0011 13.9158 17.0821C13.8884 17.1631 13.8801 17.2493 13.8914 17.334V21.084C13.8801 21.1688 13.8884 21.255 13.9158 21.336C13.9432 21.417 13.9889 21.4906 14.0494 21.551C14.1099 21.6115 14.1834 21.6572 14.2644 21.6846C14.3454 21.712 14.4316 21.7204 14.5164 21.709H16.3914V31.084C16.381 31.1689 16.3901 31.2551 16.4181 31.3359C16.446 31.4168 16.4921 31.4901 16.5528 31.5504C16.6134 31.6107 16.6871 31.6564 16.7681 31.6839C16.8491 31.7113 16.9353 31.72 17.0201 31.709H20.8389C21.2076 31.7515 21.5064 31.4528 21.3889 31.084L21.3914 21.709H24.5164C24.6011 21.7204 24.6873 21.712 24.7683 21.6846C24.8493 21.6572 24.9229 21.6115 24.9833 21.551C25.0438 21.4906 25.0895 21.417 25.1169 21.336C25.1443 21.255 25.1527 21.1688 25.1414 21.084V17.334C25.1527 17.2493 25.1443 17.1631 25.1169 17.0821C25.0895 17.0011 25.0438 16.9275 24.9833 16.8671C24.9229 16.8066 24.8493 16.7609 24.7683 16.7335C24.6873 16.7061 24.6011 16.6977 24.5164 16.709H21.3876L21.3914 14.834C21.5126 14.0353 21.5126 14.1653 22.2539 14.209H24.4901C24.6639 14.1703 24.8489 14.1915 24.9789 14.0653C25.1089 13.939 25.1839 13.7665 25.1401 13.584V9.83403C25.1517 9.74936 25.1435 9.66316 25.1162 9.58216C25.089 9.50116 25.0434 9.42754 24.983 9.36705C24.9227 9.30656 24.8491 9.26083 24.7682 9.23342C24.6873 9.20601 24.6011 9.19767 24.5164 9.20903ZM23.8476 12.889L22.2801 12.829C20.3389 12.829 20.1764 13.8828 20.1764 14.9615L20.1714 17.3315C20.1712 17.4193 20.1884 17.5062 20.2218 17.5874C20.2553 17.6685 20.3044 17.7422 20.3664 17.8043C20.4284 17.8665 20.5021 17.9157 20.5831 17.9494C20.6642 17.983 20.7511 18.0003 20.8389 18.0003H23.8914V20.4153H20.8414C20.6642 20.4153 20.4943 20.4856 20.3689 20.6107C20.2436 20.7359 20.173 20.9056 20.1726 21.0828L20.1714 30.459H17.6414V21.084C17.6414 20.7153 17.3901 20.4165 17.0201 20.4165H15.1414V18.0015H17.0201C17.1078 18.0017 17.1947 17.9845 17.2758 17.9511C17.3569 17.9176 17.4305 17.8685 17.4926 17.8065C17.6176 17.6803 17.6401 17.5103 17.6401 17.3328V14.639C17.6401 11.8365 18.2064 10.5015 21.1801 10.5015H23.8464V12.889H23.8476Z" fill="#206974"/>
</svg>
