<svg width="41" height="41" viewBox="0 0 41 41" fill="none" xmlns="http://www.w3.org/2000/svg">
<g clip-path="url(#clip0_80_252)">
<path d="M20.1413 0.416992C9.0901 0.416992 0.0975952 9.40699 0.0975952 20.4595C0.0975952 31.512 9.0901 40.502 20.1413 40.502C31.1926 40.502 40.1851 31.512 40.1851 20.4595C40.1851 9.40699 31.1926 0.416992 20.1413 0.416992ZM20.1413 39.167C9.82635 39.167 1.4351 30.7745 1.4351 20.4595C1.4351 10.1445 9.82635 1.75199 20.1413 1.75199C30.4563 1.75199 38.8476 10.1445 38.8476 20.4595C38.8476 30.7745 30.4563 39.167 20.1413 39.167Z" fill="#206974"/>
<path d="M14.889 11.1104C12.6313 11.1104 10.7913 12.9504 10.7913 15.208V27.0458C10.7913 29.3034 12.6313 31.1435 14.889 31.1435H26.7267C28.9843 31.1435 30.8244 29.3034 30.8244 27.0458V15.208C30.8244 12.9504 28.9843 11.1104 26.7267 11.1104H14.889ZM14.889 12.0209H26.7267C28.4921 12.0209 29.9138 13.4426 29.9138 15.208V27.0458C29.9138 28.8112 28.4921 30.2329 26.7267 30.2329H14.889C13.1235 30.2329 11.7019 28.8112 11.7019 27.0458V15.208C11.7019 13.4426 13.1235 12.0209 14.889 12.0209ZM26.7267 12.9315C26.228 12.9315 25.8161 13.3434 25.8161 13.8421V15.208C25.8161 15.7068 26.228 16.1186 26.7267 16.1186H28.0926C28.5914 16.1186 29.0032 15.7068 29.0032 15.208V13.8421C29.0032 13.3434 28.5914 12.9315 28.0926 12.9315H26.7267ZM26.7267 13.8421H28.0926V15.208H26.7267V13.8421ZM20.8078 15.208C19.1376 15.208 17.6281 15.9096 16.5501 17.0292H13.0678C12.947 17.0293 12.8312 17.0772 12.7458 17.1626C12.6604 17.248 12.6125 17.3638 12.6125 17.4845V26.5905C12.6125 28.0937 13.841 29.3223 15.3442 29.3223H26.2714C27.7747 29.3223 29.0032 28.0937 29.0032 26.5905V17.4845C29.0032 17.3638 28.9552 17.248 28.8699 17.1626C28.7845 17.0772 28.6687 17.0293 28.5479 17.0292H25.0656C23.9875 15.9096 22.478 15.208 20.8078 15.208ZM20.8078 16.1186C23.5731 16.1186 25.8161 18.3617 25.8161 21.1269C25.8161 23.8922 23.5731 26.1352 20.8078 26.1352C18.0426 26.1352 15.7995 23.8922 15.7995 21.1269C15.7995 18.3617 18.0426 16.1186 20.8078 16.1186ZM20.8078 17.0292C20.7436 17.0287 20.6799 17.0417 20.6211 17.0675C18.4547 17.171 16.7101 18.9351 16.7101 21.1269C16.7101 23.3849 18.5503 25.2246 20.8078 25.2246C23.0654 25.2246 24.9055 23.3849 24.9055 21.1269C24.9055 18.9357 23.1619 17.1719 20.9964 17.0675C20.937 17.0415 20.8727 17.0284 20.8078 17.0292ZM13.5231 17.9398H15.8307C15.2379 18.8614 14.889 19.9541 14.889 21.1269C14.889 24.3862 17.5486 27.0458 20.8078 27.0458C24.0671 27.0458 26.7267 24.3862 26.7267 21.1269C26.7267 19.9541 26.3778 18.8614 25.785 17.9398H28.0926V26.5905C28.0926 27.6015 27.2824 28.4117 26.2714 28.4117H15.3442C14.3333 28.4117 13.5231 27.6015 13.5231 26.5905V17.9398ZM20.8078 17.9398C22.5733 17.9398 23.9949 19.361 23.9949 21.1269C23.9949 22.8929 22.5733 24.314 20.8078 24.314C19.0424 24.314 17.6207 22.8929 17.6207 21.1269C17.6207 19.361 19.0424 17.9398 20.8078 17.9398Z" fill="#206974"/>
</g>
<defs>
<clipPath id="clip0_80_252">
<rect width="40" height="40" fill="white" transform="translate(0.141357 0.459961)"/>
</clipPath>
</defs>
</svg>
