<?xml version="1.0" encoding="utf-8"?>
<svg width="42" height="41" viewBox="0 0 42 41" fill="none" xmlns="http://www.w3.org/2000/svg">
  <g clip-path="url(#clip0_80_248)">
    <path d="M20.6413 0.416992C9.31381 0.416992 0.0964966 9.40699 0.0964966 20.4595C0.0964966 31.512 9.31381 40.502 20.6413 40.502C31.9689 40.502 41.1862 31.512 41.1862 20.4595C41.1862 9.40699 31.9689 0.416992 20.6413 0.416992ZM20.6413 39.167C10.0685 39.167 1.46743 30.7745 1.46743 20.4595C1.46743 10.1445 10.0685 1.75199 20.6413 1.75199C31.2142 1.75199 39.8152 10.1445 39.8152 20.4595C39.8152 30.7745 31.2142 39.167 20.6413 39.167Z" style="fill: rgb(141, 65, 1);"/>
    <path d="M31.9086 14.267C32.0507 14.0103 32.1678 13.7412 32.2584 13.4632C32.3003 13.3343 32.3012 13.196 32.2608 13.0665C32.2205 12.9371 32.1409 12.8226 32.0325 12.7383C31.9241 12.6539 31.792 12.6036 31.6537 12.594C31.5153 12.5844 31.3773 12.616 31.2577 12.6845C30.6012 13.065 29.8905 13.3485 29.1488 13.5257C28.2484 12.733 27.0791 12.2935 25.8662 12.292C25.2073 12.2925 24.5553 12.4228 23.9492 12.6751C23.3432 12.9274 22.7956 13.2964 22.3392 13.7602C21.8829 14.2239 21.5273 14.7728 21.2936 15.3739C21.06 15.975 20.9532 16.6159 20.9796 17.2582C18.098 16.9043 15.4668 15.4818 13.6316 13.2857C13.5613 13.2025 13.4714 13.1371 13.3696 13.0951C13.2679 13.053 13.1572 13.0355 13.047 13.0441C12.9369 13.0527 12.8304 13.0871 12.7368 13.1444C12.6432 13.2017 12.5651 13.2802 12.5092 13.3732C12.089 14.0769 11.8606 14.8739 11.8458 15.6881C11.831 16.5024 12.0303 17.3067 12.4247 18.0245C12.3279 18.0404 12.235 18.0735 12.1505 18.122C12.0469 18.1864 11.9616 18.2753 11.9025 18.3804C11.8433 18.4855 11.8123 18.6034 11.8122 18.7232C11.8122 20.142 12.4592 21.4445 13.5022 22.3295L13.4573 22.3732C13.3786 22.4601 13.3244 22.5656 13.3002 22.6791C13.2759 22.7926 13.2824 22.9104 13.319 23.0207C13.5364 23.6826 13.8996 24.2902 14.3829 24.8008C14.8663 25.3115 15.4582 25.7129 16.1172 25.977C14.7637 26.6212 13.249 26.8724 11.7533 26.7007C11.5995 26.6855 11.4449 26.7204 11.3137 26.8C11.1825 26.8796 11.082 26.9995 11.0281 27.1407C10.9763 27.2831 10.9753 27.4383 11.0253 27.5813C11.0753 27.7242 11.1734 27.8465 11.3036 27.9282C13.3369 29.2014 15.7024 29.8779 18.1185 29.877C26.0367 29.877 30.7696 23.602 30.7696 17.5357L30.7683 17.3307C31.5357 16.7463 32.2022 16.0457 32.7427 15.2557C32.8246 15.1363 32.8648 14.9943 32.8575 14.8509C32.8502 14.7074 32.7957 14.57 32.7021 14.4591C32.6086 14.3482 32.4809 14.2696 32.3379 14.235C32.195 14.2004 32.0445 14.2116 31.9086 14.267ZM29.6728 16.4607C29.5799 16.526 29.5051 16.6129 29.4554 16.7135C29.4057 16.8142 29.3827 16.9254 29.3884 17.037C29.3961 17.202 29.3999 17.3695 29.3999 17.5345C29.3999 22.9445 25.1808 28.5407 18.1198 28.5407C16.8605 28.5413 15.61 28.3351 14.4208 27.9307C15.8451 27.6645 17.183 27.0686 18.3222 26.1932C18.4331 26.1079 18.5143 25.9913 18.5547 25.8593C18.5951 25.7272 18.5927 25.5863 18.5478 25.4556C18.5029 25.325 18.4178 25.2111 18.304 25.1294C18.1903 25.0478 18.0534 25.0024 17.9122 24.9995C17.3598 24.9892 16.8176 24.8524 16.3293 24.6001C15.841 24.3478 15.4203 23.9871 15.1012 23.547C15.4253 23.5257 15.7431 23.4732 16.0519 23.392C16.2013 23.353 16.3328 23.2657 16.4248 23.1444C16.5169 23.0231 16.5641 22.8749 16.5588 22.7241C16.5534 22.5733 16.4958 22.4286 16.3954 22.3138C16.2949 22.199 16.1576 22.1208 16.0057 22.092C15.3818 21.9682 14.8041 21.6812 14.3345 21.2617C13.8648 20.8423 13.5209 20.3062 13.3395 19.7107C13.6803 19.7945 14.0301 19.8432 14.3798 19.8545C14.6809 19.8532 14.9602 19.6732 15.0538 19.3907C15.1473 19.1082 15.0371 18.797 14.7822 18.632C14.1793 18.2401 13.7151 17.6763 13.453 17.0174C13.1909 16.3585 13.1436 15.6368 13.3177 14.9507C15.5433 17.1786 18.5485 18.5053 21.7329 18.6657C21.9584 18.667 22.1557 18.5882 22.2928 18.427C22.4299 18.2657 22.4825 18.052 22.4338 17.847C22.2585 17.1107 22.3369 16.3387 22.6568 15.6503C22.9766 14.9618 23.5202 14.3955 24.2032 14.0388C24.8862 13.6821 25.6707 13.555 26.4353 13.6772C27.1999 13.7993 27.9018 14.1639 28.4326 14.7145C28.5121 14.7973 28.612 14.859 28.7227 14.8938C28.8334 14.9285 28.9514 14.9352 29.0655 14.9132C29.2769 14.872 29.4858 14.8245 29.6921 14.7695C29.5991 14.8374 29.5024 14.9004 29.4025 14.9582C29.2696 15.0376 29.1685 15.1588 29.1157 15.3018C29.0628 15.4449 29.0615 15.6012 29.112 15.745C29.1624 15.8888 29.2616 16.0116 29.3931 16.0931C29.5246 16.1745 29.6807 16.2099 29.8356 16.1932L30.0687 16.1645C29.9403 16.2677 29.8083 16.3665 29.6728 16.4607Z" style="fill: rgb(141, 65, 1);"/>
  </g>
  <defs>
    <clipPath id="clip0_80_248">
      <rect width="41" height="40" fill="white" transform="translate(0.141357 0.459961)"/>
    </clipPath>
  </defs>
</svg>