<svg xmlns="http://www.w3.org/2000/svg" xmlns:xlink="http://www.w3.org/1999/xlink" viewBox="0,0,256,256" width="43" height="43" fill-rule="nonzero">
<g fill="#8d4101" fill-rule="nonzero" stroke="none" stroke-width="10" stroke-linecap="butt" stroke-linejoin="miter" stroke-miterlimit="10" stroke-dasharray="" stroke-dashoffset="0" font-family="none" font-weight="none" font-size="none" text-anchor="none" style="mix-blend-mode: normal">
<g transform="scale(3.2,3.2)">
<path d="M40,7c-18.196,0 -33,14.804 -33,33c0,18.196 14.804,33 33,33c18.196,0 33,-14.804 33,-33c0,-18.196 -14.804,-33 -33,-33zM40,9c17.093,0 31,13.907 31,31c0,17.093 -13.907,31 -31,31c-17.093,0 -31,-13.907 -31,-31c0,-17.093 13.907,-31 31,-31zM42.01953,20.09961c-0.55,-0.06 -1.03984,0.35039 -1.08984,0.90039c-0.06,0.55 0.34063,1.03984 0.89062,1.08984c0.04,0 0.06961,0.00977 0.09961,0.00977c0.51,0 0.94,-0.39039 1,-0.90039c0.05,-0.55 -0.35039,-1.03961 -0.90039,-1.09961zM37.83008,20.16992c-0.54,0.07 -0.92914,0.55937 -0.86914,1.10938c0.06,0.51 0.5,0.88086 1,0.88086h0.11914c0.54,-0.07 0.92914,-0.57109 0.86914,-1.12109c-0.07,-0.55 -0.56914,-0.93914 -1.11914,-0.86914zM45.72266,20.90625c-0.38906,0.03469 -0.73578,0.29586 -0.86328,0.69336c-0.17,0.52 0.12062,1.08977 0.64063,1.25977c0.1,0.03 0.21055,0.04102 0.31055,0.04102c0.42,0 0.81922,-0.26945 0.94922,-0.68945c0.17,-0.53 -0.12039,-1.09172 -0.65039,-1.26172c-0.12936,-0.0401 -0.26019,-0.05425 -0.38672,-0.04297zM34.16992,20.99023c-0.12828,-0.01297 -0.26062,-0.00094 -0.39062,0.03906c-0.53,0.16 -0.83016,0.72 -0.66016,1.25c0.13,0.43 0.52117,0.70117 0.95117,0.70117c0.1,0 0.19883,-0.01102 0.29883,-0.04102c0.53,-0.17 0.82016,-0.72 0.66016,-1.25c-0.1275,-0.3975 -0.47453,-0.66031 -0.85937,-0.69922zM49.5625,22.51563c-0.38719,-0.04641 -0.78219,0.13414 -0.99219,0.49414c-0.27,0.48 -0.11086,1.09109 0.36914,1.37109c0.16,0.09 0.33,0.12891 0.5,0.12891c0.35,0 0.68109,-0.18 0.87109,-0.5c0.27,-0.48 0.10891,-1.08914 -0.37109,-1.36914c-0.12,-0.0675 -0.24789,-0.10953 -0.37695,-0.125zM30.31055,22.54883c-0.12937,0.01453 -0.25836,0.05359 -0.38086,0.12109c-0.48,0.26 -0.64891,0.86938 -0.37891,1.35938c0.18,0.33 0.51914,0.50977 0.86914,0.50977c0.17,0 0.33023,-0.03891 0.49023,-0.12891c0.48,-0.26 0.64891,-0.87937 0.37891,-1.35937c-0.2025,-0.36 -0.59039,-0.54555 -0.97852,-0.50195zM52.60547,24.83398c-0.25625,0.01375 -0.50555,0.12594 -0.68555,0.33594c-0.37,0.41 -0.33969,1.04016 0.07031,1.41016c0.19,0.17 0.42992,0.25 0.66992,0.25c0.28,0 0.55,-0.11008 0.75,-0.33008c0.36,-0.41 0.32992,-1.05016 -0.08008,-1.41016c-0.205,-0.185 -0.46836,-0.26961 -0.72461,-0.25586zM27.24414,24.84766c-0.25625,-0.015 -0.51961,0.06695 -0.72461,0.25195c-0.41,0.37 -0.44031,1.00016 -0.07031,1.41016c0.19,0.22 0.47023,0.33008 0.74023,0.33008c0.24,0 0.47992,-0.08 0.66992,-0.25c0.41,-0.37 0.44031,-1.00016 0.07031,-1.41016c-0.18,-0.205 -0.4293,-0.31703 -0.68555,-0.33203zM55.48047,27.78711c-0.25375,-0.03875 -0.52023,0.01859 -0.74023,0.18359c-0.45,0.32 -0.5407,0.94867 -0.2207,1.38867c0.2,0.27 0.50055,0.41016 0.81055,0.41016c0.21,0 0.40984,-0.05945 0.58984,-0.18945c0.45,-0.33 0.5407,-0.96039 0.2207,-1.40039c-0.165,-0.22 -0.40641,-0.35383 -0.66016,-0.39258zM24.38672,27.82813c-0.25125,0.0425 -0.48648,0.18211 -0.64648,0.41211c-0.32,0.45 -0.20977,1.07062 0.24023,1.39063c0.18,0.12 0.38008,0.17969 0.58008,0.17969c0.31,0 0.61859,-0.14992 0.80859,-0.41992c0.32,-0.45 0.21172,-1.08063 -0.23828,-1.39062c-0.225,-0.16 -0.49289,-0.21438 -0.74414,-0.17187zM34.02734,29c-0.1725,0.00013 -0.345,0.04577 -0.5,0.13477c-0.31,0.178 -0.5,0.50823 -0.5,0.86523v20c0,0.357 0.19,0.68623 0.5,0.86523c0.155,0.09 0.327,0.13477 0.5,0.13477c0.173,0 0.345,-0.04477 0.5,-0.13477l17.32031,-10c0.31,-0.178 0.5,-0.50823 0.5,-0.86523c0,-0.357 -0.19,-0.68623 -0.5,-0.86523l-17.32031,-10c-0.155,-0.0895 -0.3275,-0.13489 -0.5,-0.13477zM57.30469,31.20117c-0.12922,0.00297 -0.25977,0.03039 -0.38477,0.08789c-0.5,0.23 -0.73,0.82031 -0.5,1.32031c0.16,0.37 0.53016,0.58984 0.91016,0.58984c0.14,0 0.28016,-0.02984 0.41016,-0.08984c0.5,-0.23 0.73,-0.82031 0.5,-1.32031c-0.1725,-0.375 -0.54789,-0.5968 -0.93555,-0.58789zM22.63477,31.2832c-0.38719,0.00281 -0.75883,0.23469 -0.92383,0.61719c-0.21,0.51 0.02906,1.09055 0.53906,1.31055c0.12,0.05 0.26086,0.07812 0.38086,0.07812c0.39,0 0.76969,-0.22914 0.92969,-0.61914c0.21,-0.51 -0.03102,-1.09055 -0.54102,-1.31055c-0.125,-0.0525 -0.2557,-0.07711 -0.38477,-0.07617zM35.02734,31.73242l14.32031,8.26758l-14.32031,8.26758zM58.75781,34.98828c-0.1275,-0.02484 -0.26344,-0.02555 -0.39844,0.00195c-0.54,0.12 -0.87953,0.64945 -0.76953,1.18945c0.1,0.47 0.52047,0.79102 0.98047,0.79102c0.07,0 0.13898,-0.01148 0.20898,-0.02148c0.54,-0.12 0.89148,-0.64945 0.77148,-1.18945c-0.09,-0.405 -0.41047,-0.69695 -0.79297,-0.77148zM21.66992,35.09961c-0.54,-0.1 -1.06992,0.25102 -1.16992,0.79102c-0.11,0.54 0.24906,1.06992 0.78906,1.16992c0.06,0.02 0.13141,0.01953 0.19141,0.01953c0.47,0 0.89047,-0.33078 0.98047,-0.80078c0.11,-0.54 -0.24102,-1.06969 -0.79102,-1.17969zM59,38.91992c-0.56,0 -1,0.45 -1,1v0.06055v0.01953c0,0.55 0.45,1 1,1c0.55,0 1,-0.45 1,-1v-0.03906v-0.05078c0,-0.55 -0.45,-1.00023 -1,-0.99023zM21.09961,39.03906c-0.56,0 -1,0.45 -1,1c0,0.55 0.45,1 1,1c0.55,0 1,-0.44976 1,-1.00977c0,-0.55 -0.45,-0.99023 -1,-0.99023zM58.39844,42.96289c-0.38625,0.07312 -0.70656,0.37234 -0.78906,0.77734c-0.11,0.54 0.23148,1.06945 0.77148,1.18945c0.07,0.01 0.13898,0.01953 0.20898,0.01953c0.46,0 0.88047,-0.31906 0.98047,-0.78906c0.11,-0.55 -0.22953,-1.07945 -0.76953,-1.18945c-0.1375,-0.03 -0.27359,-0.03219 -0.40234,-0.00781zM21.30078,43.00977c-0.54,0.11 -0.89125,0.63969 -0.78125,1.17969c0.09,0.47 0.51047,0.80078 0.98047,0.80078c0.06,0 0.12945,-0.00953 0.18945,-0.01953c0.55,-0.11 0.90102,-0.64164 0.79102,-1.18164c-0.11,-0.54 -0.63969,-0.8893 -1.17969,-0.7793zM57.38477,46.72461c-0.38766,-0.00703 -0.76305,0.2132 -0.93555,0.5957c-0.22,0.5 0.00172,1.09031 0.51172,1.32031c0.13,0.06 0.26844,0.08984 0.39844,0.08984c0.39,0 0.74992,-0.22961 0.91992,-0.59961c0.22,-0.5 0.00023,-1.09031 -0.50977,-1.32031c-0.125,-0.055 -0.25555,-0.08359 -0.38477,-0.08594zM22.66797,46.7832c-0.12953,0 -0.26117,0.02367 -0.38867,0.07617c-0.51,0.22 -0.7493,0.81031 -0.5293,1.32031c0.16,0.38 0.52992,0.59961 0.91992,0.59961c0.13,0 0.26063,-0.02008 0.39063,-0.08008c0.51,-0.21 0.7493,-0.79859 0.5293,-1.30859c-0.165,-0.3825 -0.53328,-0.60742 -0.92187,-0.60742zM55.2207,50.17578c-0.25375,0.04 -0.49039,0.17453 -0.65039,0.39453c-0.33,0.45 -0.23125,1.08039 0.21875,1.40039c0.17,0.13 0.3818,0.18945 0.5918,0.18945c0.3,0 0.60883,-0.14016 0.79883,-0.41016h0.00977c0.32,-0.45 0.22125,-1.07039 -0.21875,-1.40039c-0.225,-0.16 -0.49625,-0.21383 -0.75,-0.17383zM24.77344,50.26563c-0.25125,-0.04125 -0.51914,0.01383 -0.74414,0.17383c-0.45,0.31 -0.56023,0.94062 -0.24023,1.39063c0.2,0.27 0.50031,0.41992 0.82031,0.41992c0.2,0 0.40008,-0.05969 0.58008,-0.17969c0.44,-0.33 0.55047,-0.95039 0.23047,-1.40039c-0.16,-0.225 -0.39523,-0.36305 -0.64648,-0.4043zM52.76953,53.11328c-0.255,-0.0125 -0.51375,0.07086 -0.71875,0.25586c-0.41,0.37 -0.44031,1.00016 -0.07031,1.41016c0.2,0.22 0.47023,0.33008 0.74023,0.33008c0.24,0 0.47992,-0.08 0.66992,-0.25c0.41,-0.37 0.44031,-1.00992 0.07031,-1.41992c-0.185,-0.205 -0.43641,-0.31367 -0.69141,-0.32617zM27.19531,53.20703c-0.25625,0.015 -0.50555,0.12703 -0.68555,0.33203c-0.37,0.41 -0.33992,1.05016 0.08008,1.41016c0.19,0.17 0.43016,0.26172 0.66016,0.26172c0.28,0 0.55,-0.1218 0.75,-0.3418c0.37,-0.41 0.32992,-1.0382 -0.08008,-1.4082c-0.205,-0.185 -0.46836,-0.26891 -0.72461,-0.25391zM49.38672,55.46094c-0.12906,0.01687 -0.25695,0.05891 -0.37695,0.12891c-0.48,0.27 -0.63938,0.88938 -0.35937,1.35938c0.18,0.32 0.51938,0.5 0.85938,0.5c0.17,0 0.35,-0.03891 0.5,-0.12891c0.48,-0.28 0.64109,-0.89109 0.37109,-1.37109c-0.21,-0.36 -0.60695,-0.53891 -0.99414,-0.48828zM30.59961,55.5c-0.38813,-0.04078 -0.77797,0.14977 -0.98047,0.50977c-0.27,0.49 -0.08938,1.09938 0.39063,1.35938c0.15,0.09 0.32047,0.13086 0.48047,0.13086c0.36,0 0.69891,-0.18953 0.87891,-0.51953c0.27,-0.48 0.09133,-1.09133 -0.38867,-1.36133c-0.1225,-0.0675 -0.25148,-0.10555 -0.38086,-0.11914zM34.04883,57.04297c-0.38437,0.04172 -0.72961,0.30953 -0.84961,0.70703c-0.17,0.52 0.13016,1.08023 0.66016,1.24023c0.1,0.03 0.19102,0.04883 0.29102,0.04883c0.43,0 0.82898,-0.27898 0.95898,-0.70898c0.16,-0.53 -0.13992,-1.09 -0.66992,-1.25c-0.13,-0.04 -0.2625,-0.05101 -0.39062,-0.03711zM45.97266,57.07422c-0.12922,-0.01062 -0.26258,0.00242 -0.39258,0.04492c-0.53,0.17 -0.82062,0.74172 -0.64062,1.26172c0.13,0.42 0.52117,0.68945 0.95117,0.68945c0.1,0 0.19859,-0.02078 0.30859,-0.05078c0.52,-0.17 0.81063,-0.72977 0.64063,-1.25977c-0.1275,-0.3975 -0.47953,-0.65367 -0.86719,-0.68555zM38.15039,57.84961c-0.54,-0.06 -1.04133,0.33086 -1.11133,0.88086c-0.06,0.55 0.33086,1.03937 0.88086,1.10938c0.04,0 0.07914,0.00977 0.11914,0.00977c0.5,0 0.93023,-0.37867 0.99023,-0.88867c0.07,-0.55 -0.32891,-1.04133 -0.87891,-1.11133zM41.90039,57.90039c-0.55,0.06 -0.95063,0.54961 -0.89062,1.09961c0.05,0.51 0.49023,0.90039 0.99023,0.90039c0.04,0 0.06938,-0.00977 0.10938,-0.00977c0.55,-0.06 0.95063,-0.55156 0.89063,-1.10156c-0.06,-0.55 -0.54961,-0.94867 -1.09961,-0.88867z">
</path>
</g>
</g>
</svg>